{"title":"The.Haunted.House.Project.2010.DVDRip.XviD.AC3-BAUM","uid":6097129,"size":1430397369,"categoryP":"video","categoryS":"movies","magnet":"?xt=urn:btih:ea58bfe01613045713e6ff81e582fbad33490ebd&amp;dn=The.Haunted.House.Project.2010.DVDRip.XviD.AC3-BAUM&amp;tr=udp%3A%2F%2Ftracker.openbittorrent.com%3A80&amp;tr=udp%3A%2F%2Fopen.demonii.com%3A1337&amp;tr=udp%3A%2F%2Ftracker.coppersurfer.tk%3A6969&amp;tr=udp%3A%2F%2Fexodus.desync.com%3A6969","seeders":2,"leechers":0,"uploader":"AcidOnboard","files":-1,"time":1294821214,"description":"Title: The Haunted House Project\n(2010)\nCountry: South Korea\nLanguage: Korean\nFilm Genre: Horror | Documentary\nSubtitles: English(srt/idx,sub), Korean(smi/idx,sub)\nInfo Link: http://www.pyega2010.co.kr/\n\n\nPlot or synopsis\nOver the past 42 years, six people have gone missing, eight people have died &quot;accidently&quot; and eleven cases of murder have occurred in a haunted deserted house somewhere in Gyeonggi Province. The home is now banned for all persons to enter. Nevertheless, 3 members of an abandoned house exploring club and 3 staff members of a broadcasting company go into the deserted house. All of them disappear without trace. Only a video is left behind ...\n\n\nGeneral\nComplete name : The.Haunted.House.Project.2010.DVDRip.XviD.AC3-BAUM.avi\nFormat : AVI\nFormat/Info : Audio Video Interleave\nFormat profile : OpenDML\nFile size : 1.32 GiB\nDuration : 1h 23mn\nOverall bit rate : 2 271 Kbps\nWriting application : AVI-Mux GUI 1.17.8.3, Feb 16 201019:42:50\n\nVideo #0\nID : 0\nFormat : MPEG-4 Visual\nFormat profile : Advanced Simple@L5\nFormat settings, BVOP : Yes\nFormat settings, QPel : No\nFormat settings, GMC : No warppoints\nFormat settings, Matrix : Default (H.263)\nCodec ID : XVID\nCodec ID/Hint : XviD\nDuration : 1h 23mn\nBit rate : 1 818 Kbps\nWidth : 720 pixels\nHeight : 400 pixels\nDisplay aspect ratio : 16:9\nFrame rate : 23.976 fps\nColor space : YUV\nChroma subsampling : 4:2:0\nBit depth : 8 bits\nScan type : Progressive\nBits/(Pixel*Frame) : 0.263\nStream size : 1.06 GiB (80%)\nWriting library : XviD 1.2.1 (UTC 2008-12-04)\n\nAudio #1\nID : 1\nFormat : AC-3\nFormat/Info : Audio Coding 3\nMode extension : CM (complete main)\nCodec ID : 2000\nDuration : 1h 23mn\nBit rate mode : Constant\nBit rate : 448 Kbps\nChannel(s) : 6 channels\nChannel positions : Front: L C R, Side: L R, LFE\nSampling rate : 48.0 KHz\nBit depth : 16 bits\nStream size : 267 MiB (20%)\nAlignment : Aligned on interleaves\nInterleave, duration : 64 ms (1.53 video frames)\nInterleave, preload duration : 192 ms\nTitle : VTS_01_1 T80 3_2ch 448Kbps DELAY 0ms\n","torrent":{"xt":"urn:btih:ea58bfe01613045713e6ff81e582fbad33490ebd","amp;dn":"The.Haunted.House.Project.2010.DVDRip.XviD.AC3-BAUM","amp;tr":["udp%3A%2F%2Ftracker.openbittorrent.com%3A80","udp%3A%2F%2Fopen.demonii.com%3A1337","udp%3A%2F%2Ftracker.coppersurfer.tk%3A6969","udp%3A%2F%2Fexodus.desync.com%3A6969"],"infoHash":"ea58bfe01613045713e6ff81e582fbad33490ebd","infoHashBuffer":{"type":"Buffer","data":[234,88,191,224,22,19,4,87,19,230,255,129,229,130,251,173,51,73,14,189]},"announce":[],"urlList":[]}}